<svg width="56" height="28" viewBox="0 0 56 28" fill="none" xmlns="http://www.w3.org/2000/svg">
<rect x="0.5" y="0.5" width="55" height="27" rx="13.5" fill="white" stroke="black"/>
<path d="M15.5402 10.004C16.3708 10.004 17.0662 10.0833 17.6262 10.242C18.1955 10.4007 18.6202 10.662 18.9002 11.026C19.1895 11.39 19.3342 11.8753 19.3342 12.482C19.3342 12.874 19.2595 13.224 19.1102 13.532C18.9702 13.8307 18.7555 14.0827 18.4662 14.288C18.1862 14.484 17.8408 14.6193 17.4302 14.694V14.764C17.8502 14.8293 18.2282 14.9507 18.5642 15.128C18.9095 15.3053 19.1802 15.5573 19.3762 15.884C19.5722 16.2107 19.6702 16.6353 19.6702 17.158C19.6702 17.7647 19.5302 18.2827 19.2502 18.712C18.9702 19.132 18.5688 19.454 18.0462 19.678C17.5328 19.8927 16.9168 20 16.1982 20H12.6842V10.004H15.5402ZM15.7922 14.26C16.6508 14.26 17.2388 14.1247 17.5562 13.854C17.8735 13.574 18.0322 13.1633 18.0322 12.622C18.0322 12.0713 17.8362 11.6793 17.4442 11.446C17.0615 11.2033 16.4455 11.082 15.5962 11.082H13.9442V14.26H15.7922ZM13.9442 15.31V18.936H15.9602C16.8468 18.936 17.4628 18.7633 17.8082 18.418C18.1535 18.0727 18.3262 17.62 18.3262 17.06C18.3262 16.7053 18.2468 16.3973 18.0882 16.136C17.9388 15.8747 17.6822 15.674 17.3182 15.534C16.9635 15.3847 16.4782 15.31 15.8622 15.31H13.9442ZM27.3756 20H21.7896V10.004H27.3756V11.11H23.0496V14.232H27.1236V15.324H23.0496V18.894H27.3756V20ZM35.2389 17.326C35.2389 17.9233 35.0943 18.432 34.8049 18.852C34.5156 19.2627 34.1003 19.58 33.5589 19.804C33.0269 20.028 32.3969 20.14 31.6689 20.14C31.2956 20.14 30.9363 20.1213 30.5909 20.084C30.2549 20.0467 29.9469 19.9953 29.6669 19.93C29.3869 19.8553 29.1396 19.7667 28.9249 19.664V18.46C29.2609 18.6093 29.6763 18.7447 30.1709 18.866C30.6749 18.9873 31.1929 19.048 31.7249 19.048C32.2196 19.048 32.6349 18.9827 32.9709 18.852C33.3069 18.7213 33.5589 18.5347 33.7269 18.292C33.8949 18.0493 33.9789 17.7647 33.9789 17.438C33.9789 17.1113 33.9089 16.836 33.7689 16.612C33.6289 16.388 33.3863 16.1827 33.0409 15.996C32.7049 15.8 32.2336 15.5947 31.6269 15.38C31.1976 15.2213 30.8196 15.0533 30.4929 14.876C30.1756 14.6893 29.9096 14.4793 29.6949 14.246C29.4803 14.0127 29.3169 13.7467 29.2049 13.448C29.1023 13.1493 29.0509 12.804 29.0509 12.412C29.0509 11.88 29.1863 11.4273 29.4569 11.054C29.7276 10.6713 30.1009 10.3773 30.5769 10.172C31.0623 9.96667 31.6176 9.864 32.2429 9.864C32.7936 9.864 33.2976 9.91533 33.7549 10.018C34.2123 10.1207 34.6276 10.256 35.0009 10.424L34.6089 11.502C34.2636 11.3527 33.8856 11.2267 33.4749 11.124C33.0736 11.0213 32.6536 10.97 32.2149 10.97C31.7949 10.97 31.4449 11.0307 31.1649 11.152C30.8849 11.2733 30.6749 11.446 30.5349 11.67C30.3949 11.8847 30.3249 12.1367 30.3249 12.426C30.3249 12.762 30.3949 13.042 30.5349 13.266C30.6749 13.49 30.9036 13.6907 31.2209 13.868C31.5383 14.0453 31.9676 14.2367 32.5089 14.442C33.0969 14.6567 33.5916 14.89 33.9929 15.142C34.4036 15.3847 34.7116 15.6787 34.9169 16.024C35.1316 16.3693 35.2389 16.8033 35.2389 17.326ZM40.4165 20H39.1565V11.11H36.0345V10.004H43.5245V11.11H40.4165V20Z" fill="black"/>
</svg>
