<svg width="40" height="41" viewBox="0 0 40 41" fill="none" xmlns="http://www.w3.org/2000/svg">
<g filter="url(#filter0_d_847_1480)">
<path d="M19.9999 32.4302C19.7789 32.4295 19.5644 32.3557 19.3899 32.2202C13.8299 27.9002 9.99987 24.1802 7.31987 20.5102C3.89987 15.8202 3.11987 11.4902 4.99987 7.64019C6.33987 4.89019 10.1899 2.64019 14.6899 3.95019C16.8354 4.56993 18.7074 5.89898 19.9999 7.72019C21.2924 5.89898 23.1643 4.56993 25.3099 3.95019C29.7999 2.66019 33.6599 4.89019 34.9999 7.64019C36.8799 11.4902 36.0999 15.8202 32.6799 20.5102C29.9999 24.1802 26.1699 27.9002 20.6099 32.2202C20.4353 32.3557 20.2208 32.4295 19.9999 32.4302V32.4302ZM12.1299 5.58019C11.0591 5.53852 9.99724 5.78924 9.05821 6.30544C8.11918 6.82164 7.33847 7.58383 6.79987 8.51019C5.24987 11.6902 5.94987 15.2302 8.93987 19.3202C12.1174 23.4188 15.8383 27.0656 19.9999 30.1602C24.1608 27.0687 27.8816 23.4252 31.0599 19.3302C34.0599 15.2302 34.7499 11.6902 33.1999 8.52019C32.1999 6.52019 29.1999 4.93019 25.8599 5.87019C24.7889 6.18669 23.7961 6.72391 22.9453 7.44727C22.0945 8.17063 21.4045 9.0641 20.9199 10.0702C20.8445 10.2536 20.7164 10.4105 20.5517 10.5209C20.387 10.6313 20.1932 10.6902 19.9949 10.6902C19.7966 10.6902 19.6028 10.6313 19.4381 10.5209C19.2734 10.4105 19.1452 10.2536 19.0699 10.0702C18.5888 9.06158 17.9001 8.16602 17.0488 7.44221C16.1974 6.7184 15.2027 6.18269 14.1299 5.87019C13.4798 5.68139 12.8067 5.5838 12.1299 5.58019V5.58019Z" fill="#FF005C"/>
</g>
<defs>
<filter id="filter0_d_847_1480" x="-2" y="0" width="44" height="44" filterUnits="userSpaceOnUse" color-interpolation-filters="sRGB">
<feFlood flood-opacity="0" result="BackgroundImageFix"/>
<feColorMatrix in="SourceAlpha" type="matrix" values="0 0 0 0 0 0 0 0 0 0 0 0 0 0 0 0 0 0 127 0" result="hardAlpha"/>
<feOffset dy="4"/>
<feGaussianBlur stdDeviation="2"/>
<feComposite in2="hardAlpha" operator="out"/>
<feColorMatrix type="matrix" values="0 0 0 0 0 0 0 0 0 0 0 0 0 0 0 0 0 0 0.25 0"/>
<feBlend mode="normal" in2="BackgroundImageFix" result="effect1_dropShadow_847_1480"/>
<feBlend mode="normal" in="SourceGraphic" in2="effect1_dropShadow_847_1480" result="shape"/>
</filter>
</defs>
</svg>
