<svg width="250" height="65" viewBox="0 0 250 65" fill="none" xmlns="http://www.w3.org/2000/svg">
<ellipse cx="125" cy="32.5" rx="125" ry="32.5" fill="#6166B3"/>
<path d="M68.1433 37.81L62.2633 40.45C59.3433 40.47 57.0033 39.58 55.2433 37.78C53.4833 35.96 52.6033 33.53 52.6033 30.49C52.6033 27.43 53.4633 24.9 55.1833 22.9C56.9033 20.9 59.1333 19.9 61.8733 19.9C64.1133 19.9 66.0433 20.51 67.6633 21.73L67.6933 22.66C67.6933 24.06 67.5133 25.3 67.1533 26.38H65.3533L65.1433 23.32C63.7233 22.46 62.1633 22.03 60.4633 22.03L59.2333 22.09C57.9933 22.79 57.0833 23.85 56.5033 25.27C55.9433 26.69 55.6633 28.2 55.6633 29.8C55.6633 32.22 56.2733 34.19 57.4933 35.71C58.7133 37.23 60.3333 37.99 62.3533 37.99L62.9833 37.96L67.6033 36.34L68.1433 37.81ZM84.8894 39.07L81.8594 40.45C81.5394 40.41 81.1394 40.16 80.6594 39.7C80.1994 39.24 79.8794 38.75 79.6994 38.23C78.6994 38.87 77.6394 39.4 76.5194 39.82C75.3994 40.24 74.5294 40.45 73.9094 40.45C72.8094 40.21 71.9294 39.56 71.2694 38.5C70.9494 38.04 70.7794 37.13 70.7594 35.77V27.64L68.5094 27.82L68.1494 26.41C69.4894 25.83 70.8494 25.52 72.2294 25.48L73.4294 26.53V35.56C73.4894 37.28 74.1494 38.14 75.4094 38.14C76.5094 38.14 77.9094 37.62 79.6094 36.58V27.64L77.3594 27.82L76.9994 26.41C78.3394 25.83 79.6994 25.52 81.0794 25.48L82.2794 26.53V37.42C82.2794 37.82 82.5394 38.02 83.0594 38.02C83.3594 38.02 83.8194 37.93 84.4394 37.75L84.8894 39.07ZM97.5302 26.11C97.6102 27.59 97.4302 29.21 96.9902 30.97H95.3702L95.0402 27.67C93.4202 28.57 92.0502 29.76 90.9302 31.24V38.02C92.3902 38.12 93.4202 38.3 94.0202 38.56L93.8402 40H86.2202L86.0702 39.01L88.2602 38.2V27.64L86.0102 27.82L85.6502 26.41C86.9902 25.83 88.3502 25.52 89.7302 25.48L90.9302 26.53V29.26L94.0802 25.9C94.6602 25.66 95.1902 25.54 95.6702 25.54C96.3102 25.54 96.9302 25.73 97.5302 26.11ZM104.333 37.96C104.913 37.96 105.833 37.73 107.093 37.27L107.603 38.65L103.703 40.45C103.023 40.49 102.343 40.24 101.663 39.7C101.003 39.14 100.673 38.54 100.673 37.9V28.21L98.8129 28.24L98.6029 26.8C99.2429 26.52 99.9529 26.29 100.733 26.11L101.933 22.33H103.343V25.96H107.543L107.663 26.83L106.253 28.27H103.343V36.34C103.343 36.96 103.413 37.39 103.553 37.63C103.693 37.85 103.953 37.96 104.333 37.96ZM123.046 39.07L120.016 40.45C119.716 40.41 119.336 40.18 118.876 39.76C118.416 39.32 118.086 38.86 117.886 38.38L114.496 40.42L113.776 40.45C112.576 40.45 111.606 40.11 110.866 39.43C110.146 38.75 109.786 37.9 109.786 36.88C109.786 35.52 110.486 34.45 111.886 33.67L117.736 33.52V30.43C117.736 29.51 117.626 28.82 117.406 28.36C117.186 27.88 116.806 27.5 116.266 27.22C115.046 27.26 113.916 27.43 112.876 27.73L112.636 30.85L111.046 30.97C110.526 30.03 110.236 28.83 110.176 27.37C111.056 26.87 112.236 26.39 113.716 25.93C115.196 25.45 116.246 25.21 116.866 25.21C117.426 25.21 118.006 25.42 118.606 25.84C119.206 26.24 119.656 26.67 119.956 27.13C120.256 27.57 120.416 28.38 120.436 29.56V37.42C120.436 37.82 120.696 38.02 121.216 38.02C121.516 38.02 121.976 37.93 122.596 37.75L123.046 39.07ZM113.386 38.26C114.566 38.3 116.016 37.93 117.736 37.15V35.08L116.236 34.99C113.816 34.99 112.606 35.62 112.606 36.88C112.606 37.48 112.866 37.94 113.386 38.26ZM127.435 22.81C126.455 22.39 125.685 21.79 125.125 21.01C125.645 19.93 126.255 19.17 126.955 18.73C127.855 19.09 128.605 19.69 129.205 20.53C128.885 21.45 128.295 22.21 127.435 22.81ZM128.635 38.08C129.635 38.2 130.355 38.36 130.795 38.56L130.615 40H123.835L123.685 39.01C124.165 38.77 124.925 38.49 125.965 38.17V27.64L123.715 27.82L123.355 26.41C124.695 25.83 126.055 25.52 127.435 25.48L128.635 26.53V38.08ZM146.401 38.08C147.421 38.22 148.121 38.38 148.501 38.56L148.321 40H142.171L142.021 39.01L143.731 38.35V31.12C143.731 28.96 143.091 27.88 141.811 27.88C140.651 27.88 139.091 28.63 137.131 30.13V38.11C137.971 38.21 138.621 38.36 139.081 38.56L138.901 40H132.481L132.331 39.01L134.461 38.23V27.64L132.211 27.82L131.851 26.41C133.191 25.83 134.551 25.52 135.931 25.48L137.131 26.53V28.51C140.131 26.49 142.171 25.48 143.251 25.48C143.831 25.58 144.411 25.88 144.991 26.38C145.591 26.86 145.971 27.36 146.131 27.88C146.311 28.4 146.401 29.37 146.401 30.79V38.08ZM165.087 37.81L159.207 40.45C156.287 40.47 153.947 39.58 152.187 37.78C150.427 35.96 149.547 33.53 149.547 30.49C149.547 27.43 150.407 24.9 152.127 22.9C153.847 20.9 156.077 19.9 158.817 19.9C161.057 19.9 162.987 20.51 164.607 21.73L164.637 22.66C164.637 24.06 164.457 25.3 164.097 26.38H162.297L162.087 23.32C160.667 22.46 159.107 22.03 157.407 22.03L156.177 22.09C154.937 22.79 154.027 23.85 153.447 25.27C152.887 26.69 152.607 28.2 152.607 29.8C152.607 32.22 153.217 34.19 154.437 35.71C155.657 37.23 157.277 37.99 159.297 37.99L159.927 37.96L164.547 36.34L165.087 37.81ZM179.531 39.07L176.501 40.45C176.201 40.41 175.821 40.18 175.361 39.76C174.901 39.32 174.571 38.86 174.371 38.38L170.981 40.42L170.261 40.45C169.061 40.45 168.091 40.11 167.351 39.43C166.631 38.75 166.271 37.9 166.271 36.88C166.271 35.52 166.971 34.45 168.371 33.67L174.221 33.52V30.43C174.221 29.51 174.111 28.82 173.891 28.36C173.671 27.88 173.291 27.5 172.751 27.22C171.531 27.26 170.401 27.43 169.361 27.73L169.121 30.85L167.531 30.97C167.011 30.03 166.721 28.83 166.661 27.37C167.541 26.87 168.721 26.39 170.201 25.93C171.681 25.45 172.731 25.21 173.351 25.21C173.911 25.21 174.491 25.42 175.091 25.84C175.691 26.24 176.141 26.67 176.441 27.13C176.741 27.57 176.901 28.38 176.921 29.56V37.42C176.921 37.82 177.181 38.02 177.701 38.02C178.001 38.02 178.461 37.93 179.081 37.75L179.531 39.07ZM169.871 38.26C171.051 38.3 172.501 37.93 174.221 37.15V35.08L172.721 34.99C170.301 34.99 169.091 35.62 169.091 36.88C169.091 37.48 169.351 37.94 169.871 38.26ZM185.706 38.08C186.706 38.2 187.426 38.36 187.866 38.56L187.686 40H180.906L180.756 39.01C181.236 38.77 181.996 38.49 183.036 38.17V20.11L180.786 20.29L180.426 18.88C181.766 18.3 183.126 17.99 184.506 17.95L185.706 19V38.08ZM194.641 38.08C195.641 38.2 196.361 38.36 196.801 38.56L196.621 40H189.841L189.691 39.01C190.171 38.77 190.931 38.49 191.971 38.17V20.11L189.721 20.29L189.361 18.88C190.701 18.3 192.061 17.99 193.441 17.95L194.641 19V38.08Z" fill="white"/>
</svg>
