<svg width="52" height="52" viewBox="0 0 52 52" fill="none" xmlns="http://www.w3.org/2000/svg">
<path d="M42.25 12.25H9.75C9.05859 12.25 8.5 12.8086 8.5 13.5V38.5C8.5 39.1914 9.05859 39.75 9.75 39.75H42.25C42.9414 39.75 43.5 39.1914 43.5 38.5V13.5C43.5 12.8086 42.9414 12.25 42.25 12.25ZM40.6875 36.9375H11.3125V35.3789L16.7227 28.9609L22.5859 35.9141L31.707 25.1016L40.6875 35.75V36.9375ZM40.6875 31.8672L31.9453 21.5C31.8203 21.3516 31.5938 21.3516 31.4688 21.5L22.5859 32.0313L16.9609 25.3633C16.8359 25.2148 16.6094 25.2148 16.4844 25.3633L11.3125 31.4961V15.0625H40.6875V31.8672ZM17.875 23.8125C18.3264 23.8125 18.7734 23.7236 19.1905 23.5508C19.6075 23.3781 19.9865 23.1249 20.3057 22.8057C20.6249 22.4865 20.8781 22.1075 21.0508 21.6905C21.2236 21.2734 21.3125 20.8264 21.3125 20.375C21.3125 19.9236 21.2236 19.4766 21.0508 19.0595C20.8781 18.6425 20.6249 18.2635 20.3057 17.9443C19.9865 17.6251 19.6075 17.3719 19.1905 17.1992C18.7734 17.0264 18.3264 16.9375 17.875 16.9375C16.9633 16.9375 16.089 17.2997 15.4443 17.9443C14.7997 18.589 14.4375 19.4633 14.4375 20.375C14.4375 21.2867 14.7997 22.161 15.4443 22.8057C16.089 23.4503 16.9633 23.8125 17.875 23.8125V23.8125ZM17.875 19.2812C18.4805 19.2812 18.9688 19.7695 18.9688 20.375C18.9688 20.9805 18.4805 21.4688 17.875 21.4688C17.2695 21.4688 16.7812 20.9805 16.7812 20.375C16.7812 19.7695 17.2695 19.2812 17.875 19.2812Z" fill="#696969"/>
<rect x="1" y="1" width="50" height="50" rx="10" stroke="#B0B0B0"/>
</svg>
