<svg width="38" height="38" viewBox="0 0 38 38" fill="none" xmlns="http://www.w3.org/2000/svg">
<path d="M28.9194 7.29561C25.4237 3.7999 19.7311 3.7999 16.2391 7.29561L6.55355 16.9737C6.49046 17.0368 6.45707 17.1222 6.45707 17.2112C6.45707 17.3003 6.49046 17.3856 6.55355 17.4487L7.92289 18.8181C7.98548 18.8804 8.07021 18.9154 8.15853 18.9154C8.24686 18.9154 8.33158 18.8804 8.39418 18.8181L18.0797 9.13994C19.2821 7.9376 20.8815 7.27705 22.5811 7.27705C24.2807 7.27705 25.8801 7.9376 27.0788 9.13994C28.2811 10.3423 28.9416 11.9417 28.9416 13.6376C28.9416 15.3372 28.2811 16.9329 27.0788 18.1353L17.2077 28.0026L15.6082 29.6021C14.1127 31.0976 11.6821 31.0976 10.1866 29.6021C9.46293 28.8784 9.06586 27.9173 9.06586 26.8931C9.06586 25.8688 9.46293 24.9077 10.1866 24.1841L19.9797 14.3946C20.2284 14.1497 20.5549 14.0124 20.9038 14.0124H20.9075C21.2563 14.0124 21.5791 14.1497 21.8241 14.3946C22.0727 14.6433 22.2063 14.9698 22.2063 15.3187C22.2063 15.6638 22.069 15.9903 21.8241 16.2353L13.8196 24.2323C13.7565 24.2954 13.7231 24.3808 13.7231 24.4698C13.7231 24.5589 13.7565 24.6442 13.8196 24.7073L15.1889 26.0767C15.2515 26.139 15.3362 26.174 15.4245 26.174C15.5129 26.174 15.5976 26.139 15.6602 26.0767L23.661 18.0759C24.3995 17.3374 24.8039 16.3577 24.8039 15.3149C24.8039 14.2722 24.3957 13.2888 23.661 12.554C22.1358 11.0288 19.6569 11.0325 18.1317 12.554L17.1817 13.5077L8.34222 22.3435C7.74228 22.9399 7.26671 23.6495 6.94311 24.4311C6.6195 25.2127 6.45429 26.0508 6.45707 26.8968C6.45707 28.6149 7.12875 30.2292 8.34222 31.4427C9.60023 32.697 11.2479 33.3241 12.8955 33.3241C14.5432 33.3241 16.1909 32.697 17.4452 31.4427L28.9194 19.9759C30.6079 18.2837 31.543 16.0312 31.543 13.6376C31.5467 11.2403 30.6116 8.98779 28.9194 7.29561Z" fill="#6166B3"/>
</svg>
