<svg width="18" height="18" viewBox="0 0 18 18" fill="none" xmlns="http://www.w3.org/2000/svg">
<path d="M12.5 11.5001H11.71L11.43 11.2301C12.41 10.0901 13 8.61006 13 7.00006C13 3.41006 10.09 0.500061 6.5 0.500061C2.91 0.500061 0 3.41006 0 7.00006C0 10.5901 2.91 13.5001 6.5 13.5001C8.11 13.5001 9.59 12.9101 10.73 11.9301L11 12.2101V13.0001L16 17.9901L17.49 16.5001L12.5 11.5001ZM6.5 11.5001C4.01 11.5001 2 9.49006 2 7.00006C2 4.51006 4.01 2.50006 6.5 2.50006C8.99 2.50006 11 4.51006 11 7.00006C11 9.49006 8.99 11.5001 6.5 11.5001Z" fill="black"/>
</svg>
