<svg width="2rem" height="2rem" viewBox="0 0 36 37" fill="none" xmlns="http://www.w3.org/2000/svg">
<circle cx="18" cy="18.5" r="17.75" fill="white" stroke="#6166B3" stroke-width="0.5"/>
<path d="M29.643 11.437C28.808 11.807 27.911 12.057 26.968 12.17C27.941 11.5878 28.669 10.6715 29.016 9.59202C28.1019 10.135 27.1014 10.5172 26.058 10.722C25.3564 9.97288 24.4271 9.47634 23.4143 9.30949C22.4016 9.14264 21.3621 9.31481 20.4572 9.79927C19.5524 10.2837 18.8328 11.0534 18.4102 11.9887C17.9875 12.9241 17.8855 13.9728 18.12 14.972C16.2677 14.879 14.4556 14.3976 12.8014 13.5589C11.1472 12.7203 9.68785 11.5432 8.51801 10.104C8.11801 10.794 7.88801 11.594 7.88801 12.446C7.88757 13.213 8.07644 13.9683 8.43789 14.6447C8.79934 15.3212 9.32217 15.8981 9.96001 16.324C9.22029 16.3005 8.49688 16.1006 7.85001 15.741V15.801C7.84994 16.8768 8.22204 17.9194 8.90319 18.752C9.58434 19.5846 10.5326 20.1559 11.587 20.369C10.9008 20.5547 10.1813 20.5821 9.48301 20.449C9.78051 21.3746 10.36 22.184 11.1404 22.7639C11.9208 23.3438 12.8629 23.6652 13.835 23.683C12.1848 24.9784 10.1469 25.6811 8.04901 25.678C7.67739 25.6781 7.30609 25.6564 6.93701 25.613C9.06649 26.9822 11.5454 27.7088 14.077 27.706C22.647 27.706 27.332 20.608 27.332 14.452C27.332 14.252 27.327 14.05 27.318 13.85C28.2293 13.191 29.0159 12.3749 29.641 11.44L29.643 11.437Z" fill="#1D9BF0"/>
</svg>
